<svg width="134" height="77" viewBox="0 0 134 77" fill="none" xmlns="http://www.w3.org/2000/svg">
<path d="M5.37817 70.6987C-1.90858 63.0331 -1.79064 50.9104 5.73071 43.3882L6.09301 43.0356C6.2607 42.8763 6.43154 42.721 6.60375 42.5688L14.303 48.272C13.5616 48.7087 12.8625 49.2457 12.2258 49.8823C8.17158 53.9371 8.17131 60.5113 12.2258 64.5659C16.2805 68.6201 22.8548 68.62 26.9094 64.5659C28.3147 63.1606 29.2322 61.4517 29.6633 59.6509L37.3684 65.3589C36.4248 67.4244 35.1036 69.36 33.4036 71.0601C25.7621 78.701 13.3722 78.702 5.73071 71.061L5.37817 70.6987Z" fill="white"/>
<path d="M33.6016 5.73094C41.2428 13.3725 41.2429 25.7617 33.6016 33.4032C33.4391 33.5656 33.273 33.7239 33.1063 33.8794L31.9889 34.9968L23.9752 29.0604C25.1113 28.557 26.1761 27.8402 27.1074 26.909C31.1618 22.8544 31.1616 16.2805 27.1074 12.2258C23.0527 8.17107 16.4783 8.17116 12.4235 12.2257C10.7175 13.932 9.72942 16.0845 9.45926 18.3074L1.53808 12.4391C2.49207 9.99556 3.95514 7.70465 5.92866 5.73094L6.29092 5.37849C13.9568 -1.90838 26.0795 -1.79103 33.6016 5.73094Z" fill="white"/>
<path d="M33.4027 43.3881C37.622 47.6076 39.511 53.2743 39.0707 58.7903L26.3758 49.3858C25.9569 49.0211 25.5161 48.695 25.0574 48.4088L9.34496 36.7695L6.78589 34.2098C6.49435 33.9509 6.20707 33.6831 5.92775 33.4038L5.57592 33.0415C1.6315 28.8921 -0.141357 23.4365 0.253044 18.1119L30.5844 40.5808L32.9969 42.994C33.1335 43.123 33.269 43.2544 33.4027 43.3881Z" fill="white"/>
<path d="M51.0449 44.8688V31.9871H60.9638C62.9766 31.9871 64.3936 33.4041 64.3936 35.4168V35.449C64.3936 36.8821 63.7012 37.9287 62.574 38.4118V38.5406C63.7173 38.9915 64.4419 39.9737 64.4419 41.3907V41.4229C64.4419 43.4035 63.0088 44.8688 60.9638 44.8688H51.0449ZM54.5874 42.1314H59.7884C60.4163 42.1314 60.8672 41.6644 60.8672 41.0042V40.972C60.8672 40.2313 60.4163 39.7 59.7884 39.7H54.5874V42.1314ZM54.5874 37.0592H59.7884C60.3841 37.0592 60.8189 36.5601 60.8189 35.8355V35.8033C60.8189 35.1914 60.3841 34.7405 59.7884 34.7405H54.5874V37.0592Z" fill="white"/>
<path d="M66.4237 44.8688V31.9871H75.4087C77.9528 31.9871 79.724 33.7583 79.724 36.3185V36.3507C79.724 37.816 79.096 39.0076 78.0655 39.7V39.7966C79.096 40.3763 79.724 41.4068 79.724 42.7111V44.8688H76.1816V42.7594C76.1816 41.8738 75.5858 41.2297 74.7324 41.2297H69.9661V44.8688H66.4237ZM69.9661 38.3796H74.5714C75.4892 38.3796 76.1333 37.6872 76.1333 36.6889V36.6567C76.1333 35.6745 75.4892 34.9982 74.5714 34.9982H69.9661V38.3796Z" fill="white"/>
<path d="M81.8968 44.8688V31.9871H85.4393V44.8688H81.8968Z" fill="white"/>
<path d="M88.0137 44.8688V31.9871H96.0004C99.8971 31.9871 102.634 34.6278 102.634 38.4118V38.444C102.634 42.228 99.8971 44.8688 96.0004 44.8688H88.0137ZM91.5562 41.6805H96.0004C97.8199 41.6805 99.092 40.3441 99.092 38.444V38.4118C99.092 36.4957 97.8199 35.1753 96.0004 35.1753H91.5562V41.6805Z" fill="white"/>
<path d="M110.263 45.1425C106.269 45.1425 103.371 42.3407 103.371 38.444V38.4118C103.371 34.5151 106.575 31.6489 111.261 31.6489C115.544 31.6489 118.604 34.0642 118.604 37.3169V37.3813H114.948V37.3169C114.948 35.9482 113.419 34.8371 111.261 34.8371C108.749 34.8371 107.026 36.399 107.026 38.4118V38.444C107.026 40.6661 108.701 42.2119 111.39 42.2119C112.775 42.2119 113.982 41.6966 114.433 40.9237V40.7949H111.019V38.4601H118.604V44.8688H115.399L115.174 42.9043H115.077C114.079 44.3052 112.436 45.1425 110.263 45.1425Z" fill="white"/>
<path d="M120.58 44.8688V31.9871H133.01V34.7244H124.122V37.0592H133.01V39.6839H124.122V42.1314H133.01V44.8688H120.58Z" fill="white"/>
</svg>
