<svg width="40" height="77" viewBox="0 0 40 77" fill="none" xmlns="http://www.w3.org/2000/svg">
<path d="M5.37817 70.6987C-1.90858 63.0331 -1.79064 50.9104 5.73071 43.3882L6.09302 43.0356C6.2607 42.8763 6.43154 42.721 6.60376 42.5688L14.303 48.272C13.5616 48.7087 12.8625 49.2457 12.2258 49.8823C8.17158 53.9371 8.17131 60.5113 12.2258 64.5659C16.2805 68.6201 22.8548 68.62 26.9094 64.5659C28.3147 63.1606 29.2322 61.4517 29.6633 59.6509L37.3684 65.3589C36.4248 67.4244 35.1036 69.36 33.4036 71.0601C25.7621 78.701 13.3722 78.702 5.73071 71.061L5.37817 70.6987Z" fill="white"/>
<path d="M33.6016 5.73094C41.2428 13.3725 41.2429 25.7617 33.6016 33.4032C33.4391 33.5656 33.273 33.7239 33.1063 33.8794L31.9889 34.9968L23.9752 29.0604C25.1113 28.557 26.1761 27.8402 27.1074 26.909C31.1618 22.8544 31.1616 16.2805 27.1074 12.2258C23.0527 8.17107 16.4783 8.17116 12.4235 12.2257C10.7175 13.932 9.72942 16.0845 9.45927 18.3074L1.53809 12.4391C2.49208 9.99556 3.95514 7.70465 5.92866 5.73094L6.29092 5.37849C13.9568 -1.90838 26.0795 -1.79103 33.6016 5.73094Z" fill="white"/>
<path d="M33.4027 43.3881C37.622 47.6076 39.511 53.2743 39.0707 58.7903L26.3758 49.3858C25.9569 49.0211 25.5161 48.695 25.0574 48.4088L9.34497 36.7695L6.78589 34.2098C6.49435 33.9509 6.20707 33.6831 5.92776 33.4038L5.57592 33.0415C1.63151 28.8921 -0.141354 23.4365 0.253047 18.1119L30.5844 40.5808L32.9969 42.994C33.1335 43.123 33.269 43.2544 33.4027 43.3881Z" fill="white"/>
</svg>
