<svg width="82" height="138" viewBox="0 0 82 138" fill="none" xmlns="http://www.w3.org/2000/svg">
<path fill-rule="evenodd" clip-rule="evenodd" d="M20.4902 100.998C10.0805 90.0468 10.2481 72.7292 20.9931 61.9832L21.5097 61.4793C21.7493 61.2516 21.9942 61.0306 22.2402 60.8133L33.2392 68.9598C32.1798 69.5837 31.1812 70.3518 30.2714 71.2615C24.48 77.054 24.4796 86.4449 30.2714 92.2371C36.0637 98.0288 45.4557 98.0287 51.248 92.2371C53.2554 90.2295 54.5667 87.7891 55.1826 85.2166L66.1894 93.3699C64.8415 96.3206 62.9539 99.0857 60.5253 101.514C49.609 112.43 31.9094 112.431 20.9931 101.515L20.4902 100.998Z" fill="#09141F"/>
<path d="M60.8078 8.18696C71.7237 19.1034 71.7239 36.8023 60.8078 47.7187C60.5757 47.9508 60.3383 48.1768 60.1002 48.3991L58.5039 49.9954L47.0558 41.5148C48.6788 40.7956 50.1999 39.7716 51.5303 38.4413C57.3224 32.649 57.322 23.2577 51.5303 17.4653C45.7379 11.6729 36.346 11.673 30.5535 17.4653C28.1164 19.9028 26.7048 22.9778 26.3188 26.1534L15.0029 17.77C16.3658 14.2793 18.4558 11.0065 21.2752 8.18695L21.7927 7.68346C32.7439 -2.72636 50.0619 -2.55872 60.8078 8.18696Z" fill="#09141F"/>
<path d="M60.5242 61.983C66.5517 68.0108 69.2503 76.1062 68.6212 83.9861L50.4858 70.5511C49.8873 70.0301 49.2576 69.5643 48.6023 69.1553L26.1561 52.5278L22.5003 48.8711C22.0838 48.5013 21.6734 48.1186 21.2744 47.7196L20.7718 47.2021C15.1369 41.2744 12.6043 33.4807 13.1677 25.8741L56.498 57.9725L59.9445 61.4199C60.1396 61.6043 60.3331 61.7919 60.5242 61.983Z" fill="#09141F"/>
<path d="M0 137.227V124.345H9.91889C11.9317 124.345 13.3486 125.762 13.3486 127.775V127.807C13.3486 129.241 12.6563 130.287 11.5291 130.77V130.899C12.6724 131.35 13.3969 132.332 13.3969 133.749V133.781C13.3969 135.762 11.9639 137.227 9.91889 137.227H0ZM3.54246 134.49H8.74344C9.37142 134.49 9.82228 134.023 9.82228 133.363V133.33C9.82228 132.59 9.37142 132.058 8.74344 132.058H3.54246V134.49ZM3.54246 129.418H8.74344C9.33922 129.418 9.77398 128.918 9.77398 128.194V128.162C9.77398 127.55 9.33922 127.099 8.74344 127.099H3.54246V129.418Z" fill="#09141F"/>
<path d="M15.3788 137.227V124.345H24.3637C26.9079 124.345 28.6791 126.117 28.6791 128.677V128.709C28.6791 130.174 28.0511 131.366 27.0206 132.058V132.155C28.0511 132.735 28.6791 133.765 28.6791 135.069V137.227H25.1366V135.118C25.1366 134.232 24.5409 133.588 23.6874 133.588H18.9212V137.227H15.3788ZM18.9212 130.738H23.5264C24.4442 130.738 25.0883 130.046 25.0883 129.047V129.015C25.0883 128.033 24.4442 127.357 23.5264 127.357H18.9212V130.738Z" fill="#09141F"/>
<path d="M30.8519 137.227V124.345H34.3943V137.227H30.8519Z" fill="#09141F"/>
<path d="M36.9688 137.227V124.345H44.9554C48.8521 124.345 51.5895 126.986 51.5895 130.77V130.802C51.5895 134.586 48.8521 137.227 44.9554 137.227H36.9688ZM40.5112 134.039H44.9554C46.775 134.039 48.047 132.702 48.047 130.802V130.77C48.047 128.854 46.775 127.534 44.9554 127.534H40.5112V134.039Z" fill="#09141F"/>
<path d="M59.2177 137.501C55.2244 137.501 52.326 134.699 52.326 130.802V130.77C52.326 126.873 55.5304 124.007 60.2161 124.007C64.4992 124.007 67.5586 126.423 67.5586 129.675V129.74H63.9035V129.675C63.9035 128.307 62.3737 127.196 60.2161 127.196C57.7041 127.196 55.9812 128.757 55.9812 130.77V130.802C55.9812 133.025 57.6558 134.57 60.3449 134.57C61.7297 134.57 62.9373 134.055 63.3882 133.282V133.153H59.9745V130.819H67.5586V137.227H64.3543L64.1289 135.263H64.0323C63.0339 136.664 61.3915 137.501 59.2177 137.501Z" fill="#09141F"/>
<path d="M69.5347 137.227V124.345H81.9655V127.083H73.0771V129.418H81.9655V132.042H73.0771V134.49H81.9655V137.227H69.5347Z" fill="#09141F"/>
</svg>
